<?xml version="1.0" encoding="UTF-8" standalone="no"?>
<svg
   xmlns:dc="http://purl.org/dc/elements/1.1/"
   xmlns:cc="http://creativecommons.org/ns#"
   xmlns:rdf="http://www.w3.org/1999/02/22-rdf-syntax-ns#"
   xmlns:svg="http://www.w3.org/2000/svg"
   xmlns="http://www.w3.org/2000/svg"
   viewBox="0 0 920 160"
   height="160"
   width="920"
   xml:space="preserve"
   id="svg10"
   version="1.1"><metadata
     id="metadata16"><rdf:RDF><cc:Work
         rdf:about=""><dc:format>image/svg+xml</dc:format><dc:type
           rdf:resource="http://purl.org/dc/dcmitype/StillImage" /><dc:title></dc:title></cc:Work></rdf:RDF></metadata><defs
     id="defs14"><linearGradient
       id="linearGradient26"
       spreadMethod="pad"
       gradientUnits="userSpaceOnUse"
       y2="271.44"
       x2="373.26999"
       y1="271.44"
       x1="135.52"><stop
         id="stop22"
         offset="0"
         style="stop-opacity:1;stop-color:#ffffff" /><stop
         id="stop24"
         offset="1"
         style="stop-opacity:1;stop-color:#bfbfbf" /></linearGradient><clipPath
       id="clipPath38"
       clipPathUnits="userSpaceOnUse"><path
         style="clip-rule:evenodd"
         id="path36"
         d="M -1.1382e-5,1.8311e-4 H 959.99999 V 540.00018 H -1.1382e-5 Z" /></clipPath><clipPath
       id="clipPath48"
       clipPathUnits="userSpaceOnUse"><path
         id="path46"
         d="M 0,0 H 19.196 V 19.195 H 0 Z" /></clipPath><linearGradient
       id="linearGradient60"
       spreadMethod="pad"
       gradientUnits="userSpaceOnUse"
       y2="268.23999"
       x2="831.78998"
       y1="268.23999"
       x1="471.92001"><stop
         id="stop56"
         offset="0"
         style="stop-opacity:1;stop-color:#ffffff" /><stop
         id="stop58"
         offset="1"
         style="stop-opacity:1;stop-color:#bfbfbf" /></linearGradient></defs><g
     style="display:inline"
     transform="matrix(1.3333333,0,0,-1.3333333,0,160)"
     id="g18"><g
       transform="translate(-147.5,-207.1)"
       id="g20"><path
         id="path28"
         style="fill:url(#linearGradient26);fill-opacity:1;fill-rule:evenodd;stroke:none"
         d="m 156.8,265.99 v -37.53 h 16.16 c 7.1,0 12.48,1.66 16.15,4.98 3.66,3.32 5.49,8.07 5.49,14.25 0,12.2 -8.42,18.3 -25.27,18.3 z m 0,42.59 v -33.96 h 11.8 c 6.54,0 11.74,1.64 15.6,4.92 3.85,3.28 5.78,7.73 5.78,13.35 0,10.46 -6.27,15.69 -18.81,15.69 z m 105.48,1.68 c -10.58,0 -19.3,-3.84 -26.15,-11.54 -6.86,-7.69 -10.29,-17.83 -10.29,-30.43 0,-12.73 3.25,-22.82 9.73,-30.27 6.49,-7.45 15.13,-11.18 25.92,-11.18 11.32,0 20.27,3.69 26.84,11.06 6.58,7.37 9.87,17.72 9.87,31.05 0,13.05 -3.22,23.2 -9.65,30.45 -6.43,7.24 -15.18,10.86 -26.27,10.86 z m 61.22,7.01 h 9.3 v -88.81 h 37.99 v -8.62 H 323.5 Z m -176,0 h 26.25 c 7.82,0 14.07,-2.13 18.76,-6.4 4.69,-4.26 7.04,-9.88 7.04,-16.86 0,-5.78 -1.56,-10.8 -4.66,-15.07 -2.33,-3.2 -5.17,-5.64 -8.5,-7.32 l -0.12,-0.05 0.99,-0.25 c 4.17,-1.13 7.77,-3.33 10.79,-6.59 4.04,-4.34 6.05,-9.82 6.05,-16.44 0,-8.34 -2.71,-15.16 -8.14,-20.48 -5.43,-5.32 -12.66,-7.97 -21.68,-7.97 H 147.5 Z m 115.91,1.62 c 13.18,0 23.86,-4.52 32.03,-13.56 8.17,-9.05 12.26,-20.82 12.26,-35.32 0,-16.02 -4.18,-28.66 -12.53,-37.93 -2.6,-2.91 -5.27,-5.01 -8.02,-6.3 L 310.14,207.1 H 297.2 l -17.63,14.36 c -5.01,-2.21 -10.99,-3.31 -17.95,-3.31 -13.8,0 -24.79,4.59 -32.99,13.77 -8.19,9.17 -12.29,21.05 -12.29,35.64 0,15.46 4.21,27.88 12.63,37.26 8.42,9.38 19.9,14.07 34.44,14.07 z" /></g><path
       id="path30"
       style="fill:none;stroke:#333f50;stroke-width:1;stroke-linecap:butt;stroke-linejoin:round;stroke-miterlimit:10;stroke-dasharray:none;stroke-opacity:1"
       d="M 9.8,59.39 V 21.86 h 16.16 c 7.1,0 12.48,1.66 16.15,4.98 3.66,3.32 5.49,8.07 5.49,14.25 0,12.2 -8.42,18.3 -25.27,18.3 z m 0,42.59 V 68.02 h 11.8 c 6.54,0 11.74,1.64 15.6,4.92 3.85,3.28 5.78,7.73 5.78,13.35 0,10.46 -6.27,15.69 -18.81,15.69 z m 105.48,1.68 c -10.58,0 -19.3,-3.84 -26.15,-11.54 -6.86,-7.69 -10.29,-17.83 -10.29,-30.43 0,-12.73 3.25,-22.82 9.73,-30.27 6.49,-7.45 15.13,-11.18 25.92,-11.18 11.32,0 20.27,3.69 26.84,11.06 6.58,7.37 9.87,17.72 9.87,31.05 0,13.05 -3.22,23.2 -9.65,30.45 -6.43,7.24 -15.18,10.86 -26.27,10.86 z m 61.22,7.01 h 9.3 V 21.86 h 37.99 V 13.24 H 176.5 Z m -176,0 h 26.25 c 7.82,0 14.07,-2.13 18.76,-6.4 4.69,-4.26 7.04,-9.88 7.04,-16.86 0,-5.78 -1.56,-10.8 -4.66,-15.07 -2.33,-3.2 -5.17,-5.64 -8.5,-7.32 l -0.12,-0.05 0.99,-0.25 c 4.17,-1.13 7.77,-3.33 10.79,-6.59 4.04,-4.34 6.05,-9.82 6.05,-16.44 0,-8.34 -2.71,-15.16 -8.14,-20.48 C 43.53,15.89 36.3,13.24 27.28,13.24 H 0.5 Z m 115.91,1.62 c 13.18,0 23.86,-4.52 32.03,-13.56 8.17,-9.05 12.26,-20.82 12.26,-35.32 0,-16.02 -4.18,-28.66 -12.53,-37.93 -2.6,-2.91 -5.27,-5.01 -8.02,-6.3 L 163.14,0.5 H 150.2 l -17.63,14.36 c -5.01,-2.21 -10.99,-3.31 -17.95,-3.31 -13.8,0 -24.79,4.59 -32.99,13.77 -8.19,9.17 -12.29,21.05 -12.29,35.64 0,15.46 4.21,27.88 12.63,37.26 8.42,9.38 19.9,14.07 34.44,14.07 z" /><g
       transform="matrix(1,0,0,1.000564,-140.40958,-207.50663)"
       id="g32"><g
         clip-path="url(#clipPath38)"
         id="g34"><g
           transform="matrix(1.8111,0,0,1.8111,355.8,202.2)"
           id="g40"><g
             transform="scale(3.7507,3.751)"
             id="g42"><g
               clip-path="url(#clipPath48)"
               id="g44"><path
                 id="path50"
                 style="fill:#96d3f8;fill-opacity:1;fill-rule:nonzero;stroke:none"
                 d="m 17,11.715 c -0.34,0.82 -1.28,1.2 -2.1,0.86 -0.68,-0.28 -1.08,-1 -0.98,-1.7 L 11.34,9.7948 C 11.06,10.275 10.56,10.635 10,10.735 v 2.78 c 0.68,0.18 1.2,0.8 1.2,1.54 0,0.88 -0.72,1.6 -1.6,1.6 v 0 c -0.88,0 -1.6,-0.72 -1.6,-1.6 0,-0.74 0.52,-1.36 1.2,-1.54 v -2.76 C 8.62,10.655 8.14,10.295 7.86,9.8148 L 5.28,10.895 c 0.1,0.7 -0.28,1.42 -0.98,1.7 -0.82,0.34 -1.76,-0.04 -2.1,-0.86 -0.34,-0.82 0.04,-1.7602 0.86,-2.1002 0.68,-0.28 1.46,-0.06 1.88,0.5202 L 7.58,9.0748 c -0.02,-0.08 -0.02,-0.18 -0.02,-0.26 0,-0.44 0.14,-0.86 0.4,-1.2 l -2.08,-2.1 c -0.62,0.36 -1.42,0.28 -1.94,-0.24 -0.62,-0.62 -0.62,-1.64 0,-2.26 0.62,-0.62 1.64,-0.62 2.26,0 0.52,0.52 0.6,1.32 0.24,1.94 l 2.12,2.12 c 0.3,-0.18 0.64,-0.28 1,-0.28 0.02,0 0.02,0 0.04,0 0.02,0 0.02,0 0.04,0 0.36,0 0.7,0.1 1,0.28 l 2.12,-2.12 c -0.36,-0.62 -0.28,-1.42 0.24,-1.96 0.62,-0.62 1.64,-0.62 2.26,0 0.62,0.62 0.62,1.64 0,2.26 -0.52,0.52 -1.32,0.6 -1.94,0.24 l -2.08,2.1 c 0.26,0.34 0.4,0.74 0.4,1.2 0,0.08 0,0.18 -0.02,0.26 l 2.64,1.0802 c 0.42,-0.5602 1.2,-0.8002 1.88,-0.5202 0.8,0.36 1.2,1.2802 0.86,2.1002 z" /><path
                 id="path52"
                 style="fill:#333f50;fill-opacity:1;fill-rule:nonzero;stroke:none"
                 d="m 16.897,11.679 0.008,-0.021 -0.15,0.285 0.012,-0.018 -0.202,0.247 0.017,-0.016 -0.248,0.195 0.017,-0.011 -0.27,0.142 0.022,-0.008 -0.293,0.082 0.02,-0.004 -0.315,0.03 h 0.02 l -0.315,-0.03 0.021,0.004 -0.308,-0.09 0.028,0.013 -0.458,-0.285 0.028,0.025 -0.322,-0.405 0.016,0.029 -0.187,-0.488 0.007,0.027 -0.03,-0.262 v 0.019 l 0.02,-0.341 -2.733,-1.1435 -0.298,0.4075 0.016,-0.017 -0.315,0.277 0.019,-0.014 -0.367,0.203 0.02,-0.009 -0.4823,0.152 v 2.928 l 0.5383,0.239 -0.03,-0.02 0.382,0.352 -0.021,-0.026 0.255,0.45 -0.011,-0.027 0.068,0.262 -0.003,-0.018 0.022,0.27 v -0.019 l -0.03,0.322 0.005,-0.024 -0.097,0.3 0.008,-0.019 -0.15,0.27 0.012,-0.018 -0.195,0.233 0.014,-0.014 -0.233,0.195 0.019,-0.012 -0.278,0.15 0.018,-0.008 -0.2996,0.097 0.0239,-0.005 -0.3225,0.03 h 0.0204 l -0.3225,-0.03 0.0239,0.005 -0.3,-0.097 0.0195,0.008 -0.27,-0.15 0.0173,0.012 -0.2325,-0.195 0.0136,0.014 -0.195,-0.233 0.012,0.018 -0.15,-0.27 0.0084,0.019 -0.0975,-0.3 0.005,0.024 -0.03,-0.322 1e-4,0.019 0.0225,-0.27 -0.0031,0.018 0.0675,-0.262 -0.0109,0.027 0.255,-0.45 -0.0212,0.026 0.3825,-0.352 -0.03,0.02 0.538,-0.239 v -2.915 l -0.492,-0.143 0.0225,0.009 -0.3675,-0.202 0.0196,0.014 -0.315,-0.278 0.0161,0.018 -0.2989,-0.408 -2.7322,1.144 0.0194,0.34 3e-4,-0.016 -0.0225,0.255 0.0064,-0.028 -0.18,0.487 0.0166,-0.03 -0.3225,0.413 0.0292,-0.026 -0.465,0.285 0.0274,-0.012 -0.315,0.09 0.0198,-0.004 -0.315,0.03 h 0.0212 l -0.3075,-0.03 0.0218,0.004 -0.2925,-0.09 0.0179,0.008 -0.2775,-0.143 0.0192,0.013 -0.24,-0.195 0.0147,0.014 -0.2025,-0.24 0.0133,0.02 -0.15,-0.285 0.0076,0.018 -0.0975,-0.308 0.0046,0.023 -0.03,-0.315 v 0.021 l 0.03,-0.315 -0.0043,0.022 0.09,-0.292 -0.0079,0.019 0.1425,-0.27 -0.0109,0.017 0.195,-0.248 -0.0155,0.016 0.24,-0.2023 L 2.8264,9.88 3.1114,9.73 3.0931,9.7376 3.3556,9.6551 3.3381,9.6591 3.6006,9.6216 3.5723,9.622 4.0898,9.682 4.0557,9.6723 4.5207,9.8898 4.4911,9.8694 4.9179,10.279 7.6996,9.1412 7.6699,8.8051 v 0.0197 l 0.03,-0.33 L 7.6972,8.511 7.7722,8.2035 7.7662,8.2214 7.8937,7.9289 7.8855,7.9443 8.1056,7.5998 5.9076,5.386 5.3529,5.5994 5.3877,5.5921 4.8702,5.6146 4.9055,5.6188 4.4105,5.4763 4.4437,5.4922 4.0087,5.1847 4.0304,5.205 3.8279,4.9575 3.8401,4.976 3.6901,4.691 3.6987,4.7124 3.6162,4.4199 3.6198,4.4391 3.5898,4.1316 V 4.1531 L 3.6198,3.8456 3.6162,3.8648 3.6987,3.5723 3.6901,3.5937 3.8401,3.3087 3.8279,3.3272 4.0304,3.0797 4.0149,3.0952 4.2624,2.8927 4.2429,2.9055 4.5204,2.763 4.5025,2.7703 4.795,2.6803 4.7732,2.6847 5.0807,2.6547 H 5.0593 L 5.3668,2.6847 5.345,2.6803 5.6375,2.7703 5.6207,2.7635 5.9057,2.906 5.8851,2.8927 6.1326,3.0952 6.1124,3.0735 6.4199,3.5085 6.4038,3.4749 6.5463,3.9774 6.5423,3.9425 6.5198,4.4525 6.5268,4.4183 6.314,4.9799 8.5402,7.2061 9.0892,6.9659 9.0608,6.974 9.5783,6.899 9.5625,6.9002 H 9.6 9.645 l -0.0156,-0.0011 0.5246,0.075 -0.029,-0.0084 0.542,0.2408 2.226,-2.2266 -0.212,-0.5616 0.007,0.0343 -0.023,-0.5175 -0.004,0.0348 0.143,-0.5024 -0.016,0.0328 0.308,-0.4425 -0.021,0.0224 0.247,-0.2025 -0.017,0.0117 0.277,-0.15 -0.022,0.0091 0.292,-0.0825 -0.019,0.0037 0.308,-0.03 h -0.022 l 0.308,0.03 L 14.408,2.666 14.7,2.7485 14.679,2.74 14.964,2.89 14.945,2.8777 15.193,3.0802 15.177,3.0647 15.38,3.3122 15.368,3.2948 l 0.15,0.2775 -0.009,-0.0225 0.082,0.2925 -0.003,-0.0192 0.03,0.3075 V 4.1091 l -0.03,0.3075 0.003,-0.0192 -0.082,0.2925 0.008,-0.0214 -0.15,0.285 0.013,-0.0185 -0.203,0.2475 0.022,-0.0203 -0.435,0.3075 0.033,-0.0159 -0.495,0.1425 0.035,-0.0042 -0.517,-0.0225 0.034,0.0071 -0.562,-0.213 -2.191,2.2146 0.222,0.3371 -0.009,-0.0165 0.127,0.2925 -0.006,-0.0185 0.075,0.315 -0.003,-0.018 0.023,0.33 V 8.786 l -0.02,0.3412 2.78,1.1368 0.426,-0.4096 -0.029,0.0204 0.465,-0.2175 -0.034,0.0097 0.517,-0.06 H 15.61 l 0.262,0.03 -0.021,-0.0047 0.255,0.0825 -0.019,-0.0084 0.285,0.1575 -0.021,-0.0147 0.233,0.2098 -0.012,-0.012 0.195,0.24 -0.011,-0.016 0.15,0.27 -0.009,-0.021 0.09,0.292 -0.004,-0.021 0.03,0.307 v -0.021 l -0.03,0.315 0.004,-0.021 z M 17.201,11.423 17.233,11.087 17.201,10.758 17.105,10.444 16.944,10.155 16.738,9.9012 16.49,9.6769 16.184,9.5081 15.908,9.419 15.622,9.3863 15.074,9.4498 14.577,9.6826 14.189,10.055 14.307,10.033 11.667,8.9527 11.735,9.0611 11.751,8.7917 11.727,8.4457 11.648,8.1122 11.512,7.8021 11.335,7.5317 l -0.014,0.1382 2.077,-2.1 -0.117,0.0256 0.511,0.1938 0.554,0.0241 0.53,-0.1527 L 15.338,5.3338 15.557,5.0661 15.718,4.761 15.806,4.4478 15.838,4.1198 15.806,3.7918 15.718,3.4781 15.557,3.1806 15.341,2.9164 15.076,2.6999 14.771,2.5393 14.458,2.451 14.13,2.419 13.802,2.451 13.488,2.5395 13.191,2.7003 12.923,2.9192 12.596,3.3895 12.444,3.9269 12.468,4.4798 12.662,4.9914 12.687,4.8743 10.564,6.9968 10.687,6.974 10.201,6.7578 9.6528,6.6795 H 9.6 9.5545 L 9.0144,6.7578 8.5208,6.9737 8.643,6.9968 6.5205,4.8743 6.5457,4.9914 6.7395,4.4799 6.7635,3.9344 6.611,3.3966 6.284,2.9339 6.0154,2.7142 5.7112,2.5621 5.3993,2.4661 5.07,2.434 4.7407,2.4661 4.4282,2.5622 4.1317,2.7145 3.8666,2.9314 3.65,3.1961 3.4894,3.5012 3.4011,3.8143 3.3691,4.1423 3.4011,4.4703 3.4894,4.7835 3.65,5.0886 3.8691,5.3563 4.3315,5.6832 4.8618,5.8359 5.4153,5.8118 5.9196,5.6178 5.8017,5.5926 7.8867,7.6926 7.872,7.5554 7.6948,7.8328 7.56,8.142 7.4809,8.4667 7.4492,8.8147 7.4726,9.0795 7.5407,8.9677 4.9007,10.048 5.0189,10.07 4.6308,9.6976 4.133,9.4648 3.5835,9.4011 3.298,9.4419 3.0174,9.5301 2.713,9.6903 2.4553,9.9077 2.2471,10.172 l -0.152,0.288 -0.0964,0.313 -0.032,0.337 0.0321,0.337 0.104,0.328 0.1601,0.304 0.217,0.257 0.257,0.209 0.2963,0.152 0.3125,0.097 0.3292,0.032 L 4.0106,12.794 4.3498,12.697 4.8447,12.394 5.19,11.952 5.3811,11.434 5.4056,11.157 5.3902,10.886 5.3226,10.994 7.9026,9.9141 7.771,9.8776 l 0.2546,0.3474 0.333,0.293 0.3888,0.214 0.4243,0.124 -0.0795,-0.106 v 2.76 L 9.1577,13.409 8.6686,13.626 8.26,14.003 7.9893,14.481 7.9158,14.766 7.8917,15.055 7.9238,15.4 l 0.1046,0.322 0.1603,0.288 0.208,0.248 0.248,0.208 0.2885,0.16 0.3219,0.105 0.3449,0.032 0.3449,-0.032 0.3211,-0.104 0.296,-0.16 0.249,-0.209 0.208,-0.248 0.16,-0.288 0.105,-0.322 0.032,-0.345 -0.024,-0.289 -0.074,-0.285 -0.271,-0.478 -0.408,-0.377 -0.489,-0.217 0.065,0.101 v -2.775 l -0.077,0.105 0.416,-0.131 0.387,-0.213 0.333,-0.294 0.255,-0.3469 -0.132,0.0365 2.58,1.0804 -0.067,-0.108 -0.016,0.271 0.033,0.286 0.199,0.517 0.345,0.433 0.486,0.303 0.332,0.097 0.336,0.032 0.335,-0.032 0.314,-0.088 0.289,-0.153 0.265,-0.208 0.217,-0.266 0.16,-0.305 z" /></g></g></g></g></g><g
       transform="matrix(1.0044547,0,0,1,-147.24314,-207.9)"
       id="g54"><path
         id="path62"
         style="fill:url(#linearGradient60);fill-opacity:1;fill-rule:evenodd;stroke:none"
         d="m 796.12,284.65 c -7.53,0 -13.53,-2.55 -18.02,-7.66 -4.49,-5.1 -6.73,-12.27 -6.73,-21.51 0,-8.57 2.19,-15.4 6.55,-20.48 4.37,-5.09 10.35,-7.63 17.93,-7.63 7.73,0 13.68,2.51 17.84,7.52 4.17,5 6.25,12.05 6.25,21.12 0,9.32 -2.07,16.43 -6.22,21.31 -4.14,4.89 -10.01,7.33 -17.6,7.33 z m -105.45,0 c -6.65,0 -12.16,-2.58 -16.54,-7.74 -4.37,-5.15 -6.56,-12.34 -6.56,-21.56 0,-9.07 1.96,-16 5.87,-20.79 3.92,-4.79 8.93,-7.19 15.05,-7.19 7.3,0 12.95,2.26 16.93,6.76 3.98,4.51 5.96,10.04 5.96,16.58 v 12.65 c 0,5.94 -1.87,10.97 -5.61,15.1 -3.75,4.12 -8.78,6.19 -15.1,6.19 z m 48.68,6.53 h 8.85 v -70.34 h -8.85 z m -149.98,0 h 8.9 v -38.97 c 0,-8.91 1.4,-15.28 4.18,-19.1 2.78,-3.83 7.17,-5.74 13.17,-5.74 5.88,0 10.65,2.17 14.31,6.52 3.66,4.34 5.49,10.2 5.49,17.59 v 39.7 h 8.84 v -70.34 h -8.84 v 8.89 l -0.99,-1.37 c -4.69,-6.14 -11.27,-9.21 -19.73,-9.21 -16.89,0 -25.33,10.52 -25.33,31.56 z m 207.01,1.69 c 10.07,0 18.03,-3.3 23.88,-9.9 5.86,-6.6 8.79,-15.63 8.79,-27.09 0,-10.87 -2.98,-19.71 -8.93,-26.52 -5.95,-6.81 -14.1,-10.21 -24.46,-10.21 -10.28,0 -18.42,3.39 -24.41,10.17 -5.99,6.77 -8.98,15.54 -8.98,26.29 0,11.61 3.13,20.72 9.39,27.34 6.27,6.61 14.51,9.92 24.72,9.92 z m -234.34,17.92 v -19.61 h 17.83 v -8.22 h -17.83 v -43.37 c 0,-4.42 0.62,-7.52 1.87,-9.29 1.25,-1.77 3.39,-2.66 6.42,-2.66 2.29,0 5.47,0.82 9.54,2.45 v -7.85 c -3.89,-1.84 -7.33,-2.75 -10.33,-2.75 -10.9,0 -16.34,6.44 -16.34,19.33 v 44.14 h -12.16 v 8.22 h 12.16 v 17.16 c 1.41,0.51 2.74,0.98 4,1.4 0.98,0.28 2.59,0.63 4.84,1.05 z m 181.64,7.48 c 1.7,0 3.22,-0.57 4.56,-1.7 1.34,-1.14 2,-2.65 2,-4.53 0,-1.78 -0.64,-3.31 -1.92,-4.58 -1.27,-1.28 -2.82,-1.92 -4.64,-1.92 -1.71,0 -3.2,0.6 -4.47,1.82 -1.27,1.21 -1.9,2.77 -1.9,4.68 0,1.87 0.65,3.37 1.96,4.52 1.31,1.14 2.78,1.71 4.41,1.71 z m -232.09,1.62 c 5.76,0 11.87,-1.08 18.32,-3.25 v -9.14 c -6.71,2.51 -13.11,3.76 -19.18,3.76 -6.07,0 -10.84,-1.5 -14.32,-4.52 -3.47,-3.01 -5.21,-6.83 -5.21,-11.47 0,-4.54 1.2,-8.14 3.6,-10.81 2.4,-2.67 8.05,-6.67 16.95,-12 8.56,-4.68 14.38,-9.06 17.46,-13.15 3.07,-4.09 4.6,-8.8 4.6,-14.15 0,-7.67 -2.66,-13.92 -7.98,-18.75 -5.32,-4.84 -12.78,-7.26 -22.37,-7.26 -3.41,0 -7.29,0.52 -11.64,1.56 -4.36,1.03 -7.93,2.37 -10.72,4.01 v 9.6 c 7.94,-4.32 15.26,-6.48 21.96,-6.48 7.1,0 12.42,1.42 15.95,4.24 3.53,2.83 5.3,6.79 5.3,11.89 0,4.49 -1.2,8.09 -3.61,10.79 -2.41,2.7 -7.86,6.51 -16.35,11.43 -9.75,5.69 -15.98,10.52 -18.67,14.5 -2.7,3.98 -4.05,8.57 -4.05,13.79 0,7.09 2.74,13.1 8.22,18.02 5.47,4.93 12.72,7.39 21.74,7.39 z m 199.79,3.77 h 8.85 V 220.84 h -8.85 V 230 l -0.89,-1.13 c -1.88,-2.19 -4.23,-4.11 -7.06,-5.76 -4.53,-2.64 -9.64,-3.96 -15.34,-3.96 -8.74,0 -15.87,3.18 -21.37,9.54 -5.5,6.36 -8.25,15.07 -8.25,26.13 0,11.26 2.99,20.42 8.98,27.47 5.99,7.05 13.77,10.58 23.35,10.58 8.69,0 15.28,-2.75 19.76,-8.25 l 0.82,-1.09 z" /></g><path
       id="path64"
       style="fill:none;stroke:#333f50;stroke-width:1.00078511;stroke-linecap:butt;stroke-linejoin:round;stroke-miterlimit:10;stroke-dasharray:none;stroke-opacity:1"
       d="m 652.01765,77.2499 c -7.54189,0 -13.55136,-2.54998 -18.04845,-7.659942 -4.49708,-5.099962 -6.74062,-12.269908 -6.74062,-21.509838 0,-8.569936 2.19346,-15.399885 6.56034,-20.479846 4.3769,-5.089962 10.36634,-7.629943 17.9583,-7.629943 7.7422,0 13.70159,2.509981 17.86816,7.519943 4.17658,4.999963 6.25987,12.04991 6.25987,21.119842 0,9.31993 -2.07327,16.429876 -6.22982,21.30984 -4.14654,4.889963 -10.0258,7.329944 -17.62778,7.329944 z m -105.61645,0 c -6.6605,0 -12.17919,-2.57998 -16.56611,-7.739941 -4.3769,-5.149962 -6.57035,-12.339908 -6.57035,-21.559838 0,-9.069932 1.96309,-15.99988 5.87926,-20.789844 3.92619,-4.789964 8.9441,-7.189946 15.07376,-7.189946 7.31152,0 12.97044,2.259983 16.95672,6.759949 3.98628,4.509966 5.96941,10.039925 5.96941,16.579875 V 55.96006 c 0,5.939956 -1.87295,10.969918 -5.61886,15.099887 -3.75592,4.119969 -8.79385,6.189953 -15.12383,6.189953 z m 48.75684,6.529951 h 8.86397 V 13.44038 h -8.86397 z m -150.21674,0 h 8.91405 V 44.810144 c 0,-8.909933 1.40221,-15.279885 4.1866,-19.099856 2.78439,-3.829972 7.18132,-5.739957 13.19079,-5.739957 5.88928,0 10.66681,2.169984 14.33258,6.519951 3.66578,4.339967 5.49867,10.199923 5.49867,17.589868 v 39.699701 h 8.85395 V 13.44038 h -8.85395 v 8.889933 l -0.99156,-1.36999 c -4.69741,-6.139953 -11.28779,-9.20993 -19.76115,-9.20993 -16.91666,0 -25.36998,10.519921 -25.36998,31.559762 z m 207.33676,1.689988 c 10.08589,0 18.05846,-3.299975 23.91769,-9.899926 5.86925,-6.59995 8.80388,-15.629882 8.80388,-27.089796 0,-10.869919 -2.98471,-19.709852 -8.9441,-26.519801 -5.95939,-6.809949 -14.12226,-10.209923 -24.49861,-10.209923 -10.29622,0 -18.44907,3.389974 -24.44853,10.169923 -5.99945,6.769949 -8.99417,15.539883 -8.99417,26.289803 0,11.609912 3.13494,20.719844 9.40482,27.339794 6.2799,6.609951 14.5329,9.919926 24.75902,9.919926 z M 417.56816,103.3897 V 83.779851 h 17.85815 V 75.559913 H 417.56816 V 32.190239 c 0,-4.419967 0.62098,-7.519943 1.87295,-9.28993 1.25198,-1.769987 3.39536,-2.65998 6.43014,-2.65998 2.29361,0 5.47863,0.819994 9.55506,2.449981 V 14.840369 C 431.53017,13.000383 428.08474,12.09039 425.08,12.09039 c -10.9172,0 -16.36579,6.439952 -16.36579,19.329855 v 44.139668 h -12.17919 v 8.219938 h 12.17919 v 17.159869 c 1.41222,0.51 2.74432,0.98 4.00631,1.39999 0.98155,0.28 2.59409,0.63 4.84764,1.04999 z m 181.92671,7.47995 c 1.70269,0 3.22509,-0.57 4.5672,-1.69999 1.34212,-1.13999 2.00316,-2.64998 2.00316,-4.52997 0,-1.77998 -0.64101,-3.30997 -1.92303,-4.57996 -1.27201,-1.279991 -2.82445,-1.919986 -4.64733,-1.919986 -1.7127,0 -3.20505,0.599995 -4.47705,1.819986 -1.27201,1.20999 -1.903,2.76998 -1.903,4.67996 0,1.86999 0.65102,3.36998 1.96309,4.51997 1.31207,1.13999 2.78439,1.70999 4.41696,1.70999 z m -232.45634,1.61999 c 5.76909,0 11.88874,-1.08 18.34892,-3.24998 v -9.13993 c -6.72059,2.50998 -13.1307,3.75997 -19.21028,3.75997 -6.07958,0 -10.85711,-1.49999 -14.3426,-4.519965 -3.47548,-3.009978 -5.21823,-6.829949 -5.21823,-11.469914 0,-4.539966 1.2019,-8.139939 3.60569,-10.809919 2.40379,-2.66998 8.0627,-6.66995 16.97675,-11.99991 8.57351,-4.679965 14.4027,-9.059932 17.48756,-13.149901 3.07485,-4.089969 4.60726,-8.799934 4.60726,-14.149894 0,-7.669942 -2.6642,-13.919895 -7.99259,-18.749859 -5.3284,-4.839964 -12.80018,-7.259945 -22.40531,-7.259945 -3.41539,0 -7.30151,0.519996 -11.65838,1.559988 -4.36688,1.029992 -7.94251,2.369982 -10.73692,4.00997 v 9.599928 c 7.95254,-4.319968 15.28409,-6.479952 21.99467,-6.479952 7.1112,0 12.4396,1.41999 15.97517,4.239968 3.53557,2.829979 5.30837,6.789949 5.30837,11.889911 0,4.489966 -1.2019,8.089939 -3.6157,10.789919 -2.4138,2.69998 -7.87241,6.509951 -16.37581,11.429914 -9.76539,5.689957 -16.00522,10.519921 -18.69947,14.499891 -2.70426,3.97997 -4.05639,8.569936 -4.05639,13.789897 0,7.089946 2.74432,13.099903 8.23297,18.019863 5.47864,4.92996 12.74008,7.38995 21.77432,7.38995 z m 200.10536,3.76997 h 8.86397 V 13.44038 h -8.86397 v 9.159931 l -0.89141,-1.129991 c -1.88296,-2.189984 -4.23667,-4.10997 -7.07114,-5.759957 -4.53715,-2.63998 -9.65522,-3.95997 -15.36421,-3.95997 -8.7538,0 -15.89505,3.179976 -21.40373,9.539928 -5.50869,6.359952 -8.26303,15.069887 -8.26303,26.129804 0,11.259915 2.99472,20.419846 8.99418,27.469793 5.99945,7.049947 13.79173,10.579921 23.38685,10.579921 8.70372,0 15.30412,-2.74998 19.79119,-8.249938 l 0.8213,-1.089992 z" /></g></svg>